<?xml version="1.0" encoding="UTF-8" standalone="no"?>
<svg width="15px" height="12px" viewBox="0 0 15 12" version="1.1" xmlns="http://www.w3.org/2000/svg" xmlns:xlink="http://www.w3.org/1999/xlink">
    <!-- Generator: Sketch 3.8.3 (29802) - http://www.bohemiancoding.com/sketch -->
    <title>down</title>
    <desc>Created with Sketch.</desc>
    <defs></defs>
    <g id="Page-1" stroke="none" stroke-width="1" fill="none" fill-rule="evenodd">
        <g id="Product-detail" transform="translate(-277.000000, -449.000000)" fill="#11D4BA">
            <g id="Select-color" transform="translate(113.000000, 439.000000)">
                <g id="down" transform="translate(164.000000, 10.000000)">
                    <path d="M2.4081,6.1374 C2.8164,6.696 3.2388,7.2735 3.6354,7.8489 C4.0068,8.3883 4.3863,8.9232 4.7655,9.4575 L5.1579,10.011 C5.7822,10.9266 6.3213,11.7174 7.4625,11.7174 C8.6472,11.7174 9.2721,10.7616 9.7614,10.0122 C9.8397,9.9018 9.9171,9.7896 9.9945,9.6774 C10.0884,9.5412 10.1826,9.405 10.278,9.2718 L10.3047,9.2349 C11.0994,8.1288 11.9217,6.9852 12.7035,5.8458 C12.8289,5.6634 12.957,5.4801 13.0854,5.2965 C13.3602,4.9038 13.6446,4.4979 13.9071,4.0893 C13.9737,3.9858 14.0592,3.876 14.1486,3.7599 C14.5506,3.2379 15.2235,2.307 14.6841,1.3575 C14.3826,0.8265 13.7316,0.15 12.8892,0.15 L2.0346,0.15 C1.0701,0.15 0.144,1.0209 0.0531,1.9485 C-0.0213,2.7054 0.4341,3.3543 0.7998,3.8529 C0.8679,3.9453 0.9333,4.0485 0.9912,4.134 C1.4487,4.8102 1.9365,5.4921 2.4081,6.1374 L2.4081,6.1374 Z M2.0346,1.35 L12.8892,1.35 C13.1418,1.35 13.4649,1.6407 13.6407,1.9503 C13.7655,2.1693 13.605,2.4708 13.1979,2.9994 C13.089,3.141 12.9861,3.2886 12.8976,3.4263 C12.648,3.8148 12.3705,4.218 12.1026,4.6014 C11.9718,4.788 11.8419,4.9773 11.7141,5.1633 C10.9395,6.2922 10.1211,7.4322 9.33,8.5332 L9.3036,8.571 C9.2037,8.7099 9.1053,8.8527 9.0069,8.9952 C8.9322,9.1035 8.8575,9.2121 8.7696,9.3369 C8.2362,10.1532 7.9206,10.5177 7.4625,10.5177 C7.0152,10.5177 6.7935,10.2801 6.1437,9.327 L5.7447,8.7636 C5.3688,8.2335 4.9923,7.7031 4.6239,7.1685 C4.218,6.5793 3.7908,5.9949 3.3777,5.4297 C2.9121,4.7928 2.4312,4.1346 1.9854,3.4761 C1.9194,3.3789 1.845,3.2772 1.7676,3.1716 C1.5102,2.8206 1.2183,2.3658 1.2477,2.0661 C1.2774,1.758 1.6968,1.35 2.0346,1.35 L2.0346,1.35 Z" id="Shape"></path>
                </g>
            </g>
        </g>
    </g>
</svg>