<?xml version="1.0" encoding="UTF-8" standalone="no"?>
<svg width="22px" height="22px" viewBox="0 0 22 22" version="1.1" xmlns="http://www.w3.org/2000/svg" xmlns:xlink="http://www.w3.org/1999/xlink">
    <!-- Generator: Sketch 3.8.3 (29802) - http://www.bohemiancoding.com/sketch -->
    <title>cross</title>
    <desc>Created with Sketch.</desc>
    <defs></defs>
    <g id="Page-1" stroke="none" stroke-width="1" fill="none" fill-rule="evenodd">
        <g id="Added-to-cart" transform="translate(-312.000000, -146.000000)" fill="#838383">
            <g transform="translate(70.000000, 135.000000)" id="cross">
                <g transform="translate(242.000000, 11.000000)">
                    <path d="M12.6445,10.7610556 L20.8743333,2.53122222 C21.3516111,2.05394444 21.3516111,1.28027778 20.8743333,0.803 C20.3976667,0.325722222 19.6227778,0.325722222 19.1461111,0.803 L10.9162778,9.03283333 L2.68766667,0.803 C2.211,0.325722222 1.43672222,0.325722222 0.959444444,0.803 C0.482166667,1.28027778 0.482166667,2.05394444 0.959444444,2.53122222 L9.18805556,10.7610556 L0.453444444,19.4956667 C-0.0238333333,19.9729444 -0.0238333333,20.7466111 0.453444444,21.2238889 C0.691777778,21.4628333 1.00466667,21.582 1.31755556,21.582 C1.63044444,21.582 1.94333333,21.4628333 2.18166667,21.2238889 L10.9162778,12.4892778 L19.6508889,21.2238889 C19.8898333,21.4628333 20.2021111,21.582 20.515,21.582 C20.8278889,21.582 21.1401667,21.4628333 21.3791111,21.2238889 C21.8563889,20.7466111 21.8563889,19.9729444 21.3791111,19.4956667 L12.6445,10.7610556 L12.6445,10.7610556 Z" id="Shape"></path>
                </g>
            </g>
        </g>
    </g>
</svg>