<?xml version="1.0" encoding="UTF-8" standalone="no"?>
<svg width="26px" height="23px" viewBox="0 0 26 23" version="1.1" xmlns="http://www.w3.org/2000/svg" xmlns:xlink="http://www.w3.org/1999/xlink">
    <!-- Generator: Sketch 3.8.3 (29802) - http://www.bohemiancoding.com/sketch -->
    <title>heart</title>
    <desc>Created with Sketch.</desc>
    <defs></defs>
    <g id="Page-1" stroke="none" stroke-width="1" fill="none" fill-rule="evenodd">
        <g id="Product-detail" transform="translate(-378.000000, -261.000000)" fill="#979797">
            <g id="heart" transform="translate(378.000000, 261.000000)">
                <path d="M18.3884156,0.0365294118 C16.3060519,0.0365294118 14.3341039,0.930147059 12.9588052,2.46336765 C11.5831688,0.930823529 9.60885714,0.0368676471 7.52987013,0.0368676471 C3.5072987,0.0368676471 0.235012987,3.31504412 0.235012987,7.34444118 C0.235012987,8.99097059 0.746909091,10.3689412 1.89462338,11.8115147 C2.39368831,12.4389412 2.95454545,13.0146176 3.54781818,13.6227647 L3.96044156,14.0496176 C5.15981818,15.2909412 6.4041039,16.5305735 7.60719481,17.7242059 C8.20620779,18.3188235 8.80522078,18.92325 9.40051948,19.5198971 C10.0022338,20.1236471 10.6052987,20.7463382 11.2087013,21.3494118 L12.5002597,22.6167794 C12.6268831,22.7436176 12.7987532,22.8305441 12.9777143,22.8305441 L12.9787273,22.8305441 C13.158026,22.8305441 13.3298961,22.7429412 13.4565195,22.6154265 C13.9275584,22.1412206 14.3992727,21.6196618 14.8716623,21.1464706 C15.733039,20.2843088 16.5917143,19.435 17.4500519,18.5701324 C18.5781818,17.4336618 19.7063117,16.3049706 20.8408571,15.1749265 C21.084987,14.9320735 21.3348571,14.6936176 21.5864156,14.4500882 C23.5067013,12.5897941 25.6832727,10.4829265 25.6832727,7.34139706 C25.6832727,3.31267647 22.4106494,0.0365294118 18.3884156,0.0365294118 L18.3884156,0.0365294118 Z M20.647039,13.4817206 C20.3910909,13.7296471 20.1364935,13.9765588 19.8883117,14.2238088 C18.7517403,15.3555441 17.6219221,16.4940441 16.4917662,17.6325441 C15.6344416,18.4967353 14.7771169,19.3605882 13.9167532,20.2217353 C13.6027273,20.5356176 13.2893766,20.8501765 12.976026,21.1654118 L12.1622597,20.3516176 C11.5595325,19.7495588 10.9571429,19.1468235 10.3554286,18.5434118 C9.7581039,17.9447353 9.15774026,17.3494412 8.55737662,16.7534706 C7.35901299,15.5642353 6.12012987,14.33475 4.93088312,13.1039118 L4.51353247,12.6743529 C3.94457143,12.0912353 3.40735065,11.5405882 2.95049351,10.9666029 C1.99355844,9.76417647 1.58532468,8.68047059 1.58532468,7.34342647 C1.58532468,4.06017647 4.25184416,1.38913235 7.52953247,1.38913235 C9.45454545,1.38913235 11.2694805,2.36291176 12.3783636,3.93063235 L12.4013247,3.93266176 C12.5269351,4.11564706 12.7335844,4.22760294 12.9554286,4.22760294 L12.9584675,4.22760294 C13.178961,4.22760294 13.3856104,4.11902941 13.5122338,3.93739706 C14.6251688,2.34261765 16.4478701,1.35733824 18.3880779,1.35733824 C21.6657662,1.35733824 24.3322857,4.04461765 24.3322857,7.32786765 C24.3326234,9.89575 22.5426753,11.6461176 20.647039,13.4817206 L20.647039,13.4817206 Z" id="Shape"></path>
            </g>
        </g>
    </g>
</svg>